<svg width="118" height="24" viewBox="0 0 118 24" fill="none" xmlns="http://www.w3.org/2000/svg">
<circle cx="12" cy="12" r="11.75" fill="#FFCF4E" stroke="black" stroke-width="0.5"/>
<g clip-path="url(#clip0_2:28)">
<path d="M7.5249 5.68416C7.69275 5.28229 8.01336 4.96355 8.41621 4.79807C8.81906 4.63259 9.27115 4.63392 9.67302 4.80177L15.734 7.33323C16.1359 7.50108 16.4546 7.82169 16.6201 8.22454C16.7856 8.62739 16.7843 9.07948 16.6164 9.48135L14.7178 14.0271C14.55 14.429 14.2294 14.7477 13.8265 14.9132C13.4237 15.0787 12.9716 15.0773 12.5697 14.9095L6.50869 12.378C6.10682 12.2102 5.78809 11.8896 5.62261 11.4867C5.45713 11.0839 5.45846 10.6318 5.6263 10.2299L7.5249 5.68416Z" fill="#FDF4F4"/>
<path d="M15.5818 14.089L17.269 10.0493L19.3793 9.80068C19.4505 9.79236 19.5226 9.80281 19.5885 9.83101C19.6544 9.85921 19.7118 9.90416 19.7549 9.96141C19.798 10.0186 19.8254 10.0862 19.8343 10.1573C19.8433 10.2284 19.8334 10.3006 19.8058 10.3668L17.5901 15.6717C17.5624 15.7378 17.5179 15.7956 17.461 15.8392C17.404 15.8828 17.3366 15.9107 17.2655 15.9202C17.1944 15.9296 17.1221 15.9203 17.0557 15.8931C16.9894 15.8659 16.9313 15.8218 16.8873 15.7652L15.5815 14.0897L15.5818 14.089Z" fill="#FDF4F4"/>
<path d="M8.54425 13.8956L10.8171 14.8448L10.6589 15.2237C10.3442 15.9772 9.74305 16.5748 8.9877 16.8851C8.23236 17.1953 7.38469 17.1929 6.63119 16.8781L4.54772 16.0079C4.44725 15.966 4.36756 15.8858 4.32619 15.7851C4.28482 15.6844 4.28516 15.5714 4.32712 15.4709L4.88088 14.1451C4.92284 14.0446 5.00299 13.9649 5.1037 13.9236C5.20442 13.8822 5.31744 13.8825 5.41791 13.9245L7.50138 14.7947C7.65208 14.8576 7.82161 14.8581 7.97268 14.7961C8.12375 14.734 8.24398 14.6145 8.30692 14.4638L8.54425 13.8956Z" fill="#FDF4F4"/>
</g>
<path d="M31.3359 7.46484C30.6927 7.27995 30.224 7.05339 29.9297 6.78516C29.638 6.51432 29.4922 6.18099 29.4922 5.78516C29.4922 5.33724 29.6706 4.96745 30.0273 4.67578C30.3867 4.38151 30.8529 4.23438 31.4258 4.23438C31.8164 4.23438 32.1641 4.3099 32.4688 4.46094C32.776 4.61198 33.013 4.82031 33.1797 5.08594C33.349 5.35156 33.4336 5.64193 33.4336 5.95703H32.6797C32.6797 5.61328 32.5703 5.34375 32.3516 5.14844C32.1328 4.95052 31.8242 4.85156 31.4258 4.85156C31.056 4.85156 30.7669 4.93359 30.5586 5.09766C30.3529 5.25911 30.25 5.48438 30.25 5.77344C30.25 6.00521 30.3477 6.20182 30.543 6.36328C30.7409 6.52214 31.0755 6.66797 31.5469 6.80078C32.0208 6.93359 32.3906 7.08073 32.6562 7.24219C32.9245 7.40104 33.1224 7.58724 33.25 7.80078C33.3802 8.01432 33.4453 8.26562 33.4453 8.55469C33.4453 9.01562 33.2656 9.38542 32.9062 9.66406C32.5469 9.9401 32.0664 10.0781 31.4648 10.0781C31.0742 10.0781 30.7096 10.0039 30.3711 9.85547C30.0326 9.70443 29.7708 9.4987 29.5859 9.23828C29.4036 8.97786 29.3125 8.68229 29.3125 8.35156H30.0664C30.0664 8.69531 30.1927 8.96745 30.4453 9.16797C30.7005 9.36589 31.0404 9.46484 31.4648 9.46484C31.8607 9.46484 32.1641 9.38411 32.375 9.22266C32.5859 9.0612 32.6914 8.84115 32.6914 8.5625C32.6914 8.28385 32.5938 8.06901 32.3984 7.91797C32.2031 7.76432 31.849 7.61328 31.3359 7.46484ZM37.225 7.37109H34.7602V9.38672H37.6234V10H34.0102V4.3125H37.5844V4.92969H34.7602V6.75781H37.225V7.37109ZM40.243 7.69922H38.907V10H38.1531V4.3125H40.0359C40.6766 4.3125 41.1687 4.45833 41.5125 4.75C41.8589 5.04167 42.032 5.46615 42.032 6.02344C42.032 6.3776 41.9357 6.6862 41.743 6.94922C41.5529 7.21224 41.2872 7.40885 40.9461 7.53906L42.282 9.95312V10H41.4773L40.243 7.69922ZM38.907 7.08594H40.0594C40.4318 7.08594 40.7273 6.98958 40.9461 6.79688C41.1674 6.60417 41.2781 6.34635 41.2781 6.02344C41.2781 5.67188 41.1727 5.40234 40.9617 5.21484C40.7534 5.02734 40.4513 4.93229 40.0555 4.92969H38.907V7.08594ZM44.4914 9.00391L46.1164 4.3125H46.9367L44.8273 10H44.1633L42.0578 4.3125H42.8742L44.4914 9.00391ZM48.107 10H47.357V4.3125H48.107V10ZM52.2969 7.37109H49.832V9.38672H52.6953V10H49.082V4.3125H52.6562V4.92969H49.832V6.75781H52.2969V7.37109ZM53.9828 9.38672H56.6781V10H53.2289V4.3125H53.9828V9.38672ZM60.3484 7.37109H57.8836V9.38672H60.7469V10H57.1336V4.3125H60.7078V4.92969H57.8836V6.75781H60.3484V7.37109ZM65.4641 8.19531C65.3937 8.79688 65.1711 9.26172 64.7961 9.58984C64.4237 9.91536 63.9276 10.0781 63.3078 10.0781C62.6359 10.0781 62.0969 9.83724 61.6906 9.35547C61.287 8.8737 61.0852 8.22917 61.0852 7.42188V6.875C61.0852 6.34635 61.1789 5.88151 61.3664 5.48047C61.5565 5.07943 61.8247 4.77214 62.1711 4.55859C62.5174 4.34245 62.9185 4.23438 63.3742 4.23438C63.9784 4.23438 64.4628 4.40365 64.8273 4.74219C65.1919 5.07812 65.4042 5.54427 65.4641 6.14062H64.7102C64.6451 5.6875 64.5031 5.35938 64.2844 5.15625C64.0682 4.95312 63.7648 4.85156 63.3742 4.85156C62.8951 4.85156 62.5187 5.02865 62.2453 5.38281C61.9745 5.73698 61.8391 6.24089 61.8391 6.89453V7.44531C61.8391 8.0625 61.968 8.55339 62.2258 8.91797C62.4836 9.28255 62.8443 9.46484 63.3078 9.46484C63.7245 9.46484 64.0435 9.37109 64.2648 9.18359C64.4888 8.99349 64.6372 8.66406 64.7102 8.19531H65.4641ZM69.9039 4.92969H68.0758V10H67.3297V4.92969H65.5055V4.3125H69.9039V4.92969ZM72.4336 7.69922H71.0977V10H70.3438V4.3125H72.2266C72.8672 4.3125 73.3594 4.45833 73.7031 4.75C74.0495 5.04167 74.2227 5.46615 74.2227 6.02344C74.2227 6.3776 74.1263 6.6862 73.9336 6.94922C73.7435 7.21224 73.4779 7.40885 73.1367 7.53906L74.4727 9.95312V10H73.668L72.4336 7.69922ZM71.0977 7.08594H72.25C72.6224 7.08594 72.918 6.98958 73.1367 6.79688C73.3581 6.60417 73.4688 6.34635 73.4688 6.02344C73.4688 5.67188 73.3633 5.40234 73.1523 5.21484C72.944 5.02734 72.6419 4.93229 72.2461 4.92969H71.0977V7.08594ZM79.2523 7.33984C79.2523 7.89714 79.1586 8.38411 78.9711 8.80078C78.7836 9.21484 78.518 9.53125 78.1742 9.75C77.8305 9.96875 77.4294 10.0781 76.9711 10.0781C76.5232 10.0781 76.126 9.96875 75.7797 9.75C75.4333 9.52865 75.1638 9.21484 74.9711 8.80859C74.781 8.39974 74.6833 7.92708 74.6781 7.39062V6.98047C74.6781 6.43359 74.7732 5.95052 74.9633 5.53125C75.1534 5.11198 75.4216 4.79167 75.768 4.57031C76.1169 4.34635 76.5154 4.23438 76.9633 4.23438C77.419 4.23438 77.8201 4.34505 78.1664 4.56641C78.5154 4.78516 78.7836 5.10417 78.9711 5.52344C79.1586 5.9401 79.2523 6.42578 79.2523 6.98047V7.33984ZM78.5062 6.97266C78.5062 6.29818 78.3708 5.78125 78.1 5.42188C77.8292 5.0599 77.4503 4.87891 76.9633 4.87891C76.4893 4.87891 76.1156 5.0599 75.8422 5.42188C75.5714 5.78125 75.432 6.28125 75.4242 6.92188V7.33984C75.4242 7.99349 75.5609 8.50781 75.8344 8.88281C76.1104 9.25521 76.4893 9.44141 76.9711 9.44141C77.4555 9.44141 77.8305 9.26562 78.0961 8.91406C78.3617 8.5599 78.4984 8.05339 78.5062 7.39453V6.97266ZM84.3484 10H83.5945L80.7313 5.61719V10H79.9773V4.3125H80.7313L83.6023 8.71484V4.3125H84.3484V10ZM86.0852 10H85.3352V4.3125H86.0852V10ZM91.2438 8.19531C91.1734 8.79688 90.9508 9.26172 90.5758 9.58984C90.2034 9.91536 89.7073 10.0781 89.0875 10.0781C88.4156 10.0781 87.8766 9.83724 87.4703 9.35547C87.0667 8.8737 86.8648 8.22917 86.8648 7.42188V6.875C86.8648 6.34635 86.9586 5.88151 87.1461 5.48047C87.3362 5.07943 87.6044 4.77214 87.9508 4.55859C88.2971 4.34245 88.6982 4.23438 89.1539 4.23438C89.7581 4.23438 90.2424 4.40365 90.607 4.74219C90.9716 5.07812 91.1839 5.54427 91.2438 6.14062H90.4898C90.4247 5.6875 90.2828 5.35938 90.0641 5.15625C89.8479 4.95312 89.5445 4.85156 89.1539 4.85156C88.6747 4.85156 88.2984 5.02865 88.025 5.38281C87.7542 5.73698 87.6188 6.24089 87.6188 6.89453V7.44531C87.6188 8.0625 87.7477 8.55339 88.0055 8.91797C88.2633 9.28255 88.624 9.46484 89.0875 9.46484C89.5042 9.46484 89.8232 9.37109 90.0445 9.18359C90.2685 8.99349 90.4169 8.66406 90.4898 8.19531H91.2438ZM93.5469 7.46484C92.9036 7.27995 92.4349 7.05339 92.1406 6.78516C91.849 6.51432 91.7031 6.18099 91.7031 5.78516C91.7031 5.33724 91.8815 4.96745 92.2383 4.67578C92.5977 4.38151 93.0638 4.23438 93.6367 4.23438C94.0273 4.23438 94.375 4.3099 94.6797 4.46094C94.987 4.61198 95.224 4.82031 95.3906 5.08594C95.5599 5.35156 95.6445 5.64193 95.6445 5.95703H94.8906C94.8906 5.61328 94.7812 5.34375 94.5625 5.14844C94.3438 4.95052 94.0352 4.85156 93.6367 4.85156C93.2669 4.85156 92.9779 4.93359 92.7695 5.09766C92.5638 5.25911 92.4609 5.48438 92.4609 5.77344C92.4609 6.00521 92.5586 6.20182 92.7539 6.36328C92.9518 6.52214 93.2865 6.66797 93.7578 6.80078C94.2318 6.93359 94.6016 7.08073 94.8672 7.24219C95.1354 7.40104 95.3333 7.58724 95.4609 7.80078C95.5911 8.01432 95.6562 8.26562 95.6562 8.55469C95.6562 9.01562 95.4766 9.38542 95.1172 9.66406C94.7578 9.9401 94.2773 10.0781 93.6758 10.0781C93.2852 10.0781 92.9206 10.0039 92.582 9.85547C92.2435 9.70443 91.9818 9.4987 91.7969 9.23828C91.6146 8.97786 91.5234 8.68229 91.5234 8.35156H92.2773C92.2773 8.69531 92.4036 8.96745 92.6562 9.16797C92.9115 9.36589 93.2513 9.46484 93.6758 9.46484C94.0716 9.46484 94.375 9.38411 94.5859 9.22266C94.7969 9.0612 94.9023 8.84115 94.9023 8.5625C94.9023 8.28385 94.8047 8.06901 94.6094 7.91797C94.4141 7.76432 94.0599 7.61328 93.5469 7.46484ZM101.989 8.19531C101.919 8.79688 101.696 9.26172 101.321 9.58984C100.949 9.91536 100.453 10.0781 99.8328 10.0781C99.1609 10.0781 98.6219 9.83724 98.2156 9.35547C97.812 8.8737 97.6102 8.22917 97.6102 7.42188V6.875C97.6102 6.34635 97.7039 5.88151 97.8914 5.48047C98.0815 5.07943 98.3497 4.77214 98.6961 4.55859C99.0424 4.34245 99.4435 4.23438 99.8992 4.23438C100.503 4.23438 100.988 4.40365 101.352 4.74219C101.717 5.07812 101.929 5.54427 101.989 6.14062H101.235C101.17 5.6875 101.028 5.35938 100.809 5.15625C100.593 4.95312 100.29 4.85156 99.8992 4.85156C99.42 4.85156 99.0437 5.02865 98.7703 5.38281C98.4995 5.73698 98.3641 6.24089 98.3641 6.89453V7.44531C98.3641 8.0625 98.493 8.55339 98.7508 8.91797C99.0086 9.28255 99.3693 9.46484 99.8328 9.46484C100.249 9.46484 100.568 9.37109 100.79 9.18359C101.014 8.99349 101.162 8.66406 101.235 8.19531H101.989ZM106.8 8.19531C106.73 8.79688 106.507 9.26172 106.132 9.58984C105.76 9.91536 105.264 10.0781 104.644 10.0781C103.972 10.0781 103.433 9.83724 103.027 9.35547C102.623 8.8737 102.421 8.22917 102.421 7.42188V6.875C102.421 6.34635 102.515 5.88151 102.702 5.48047C102.892 5.07943 103.161 4.77214 103.507 4.55859C103.853 4.34245 104.254 4.23438 104.71 4.23438C105.314 4.23438 105.799 4.40365 106.163 4.74219C106.528 5.07812 106.74 5.54427 106.8 6.14062H106.046C105.981 5.6875 105.839 5.35938 105.62 5.15625C105.404 4.95312 105.101 4.85156 104.71 4.85156C104.231 4.85156 103.855 5.02865 103.581 5.38281C103.31 5.73698 103.175 6.24089 103.175 6.89453V7.44531C103.175 8.0625 103.304 8.55339 103.562 8.91797C103.82 9.28255 104.18 9.46484 104.644 9.46484C105.06 9.46484 105.379 9.37109 105.601 9.18359C105.825 8.99349 105.973 8.66406 106.046 8.19531H106.8ZM111.24 4.92969H109.412V10H108.666V4.92969H106.841V4.3125H111.24V4.92969ZM113.629 9.00391L115.254 4.3125H116.074L113.965 10H113.301L111.195 4.3125H112.012L113.629 9.00391Z" fill="black"/>
<path d="M29.498 16.9961H29.9902L30.0283 20.0547H29.46L29.498 16.9961ZM30.0488 16.082C30.0488 16.1699 30.0215 16.2441 29.9668 16.3047C29.9141 16.3652 29.835 16.3955 29.7295 16.3955C29.624 16.3955 29.5439 16.3652 29.4893 16.3047C29.4346 16.2441 29.4072 16.1699 29.4072 16.082C29.4072 15.9941 29.4346 15.9209 29.4893 15.8623C29.5439 15.8037 29.624 15.7744 29.7295 15.7744C29.835 15.7744 29.9141 15.8037 29.9668 15.8623C30.0215 15.9209 30.0488 15.9941 30.0488 16.082ZM30.66 19V14.7344H31.8641C32.2352 14.7344 32.5633 14.8164 32.8484 14.9805C33.1336 15.1445 33.3533 15.3779 33.5076 15.6807C33.6639 15.9834 33.743 16.3311 33.7449 16.7236V16.9961C33.7449 17.3984 33.6668 17.751 33.5105 18.0537C33.3563 18.3564 33.1346 18.5889 32.8455 18.751C32.5584 18.9131 32.2234 18.9961 31.8406 19H30.66ZM31.2225 15.1973V18.54H31.8143C32.2479 18.54 32.5848 18.4053 32.825 18.1357C33.0672 17.8662 33.1883 17.4824 33.1883 16.9844V16.7354C33.1883 16.251 33.074 15.875 32.8455 15.6074C32.6189 15.3379 32.2967 15.2012 31.8787 15.1973H31.2225ZM34.8014 19H34.2594V15.8301H34.8014V19ZM34.2154 14.9893C34.2154 14.9014 34.2418 14.8271 34.2945 14.7666C34.3492 14.7061 34.4293 14.6758 34.5348 14.6758C34.6402 14.6758 34.7203 14.7061 34.775 14.7666C34.8297 14.8271 34.857 14.9014 34.857 14.9893C34.857 15.0771 34.8297 15.1504 34.775 15.209C34.7203 15.2676 34.6402 15.2969 34.5348 15.2969C34.4293 15.2969 34.3492 15.2676 34.2945 15.209C34.2418 15.1504 34.2154 15.0771 34.2154 14.9893ZM37.2172 18.1592C37.2172 18.0127 37.1615 17.8994 37.0502 17.8193C36.9408 17.7373 36.7484 17.667 36.473 17.6084C36.1996 17.5498 35.9818 17.4795 35.8197 17.3975C35.6596 17.3154 35.5404 17.2178 35.4623 17.1045C35.3861 16.9912 35.348 16.8564 35.348 16.7002C35.348 16.4404 35.4574 16.2207 35.6762 16.041C35.8969 15.8613 36.1781 15.7715 36.5199 15.7715C36.8793 15.7715 37.1703 15.8643 37.393 16.0498C37.6176 16.2354 37.7299 16.4727 37.7299 16.7617H37.185C37.185 16.6133 37.1215 16.4854 36.9945 16.3779C36.8695 16.2705 36.7113 16.2168 36.5199 16.2168C36.3227 16.2168 36.1684 16.2598 36.057 16.3457C35.9457 16.4316 35.89 16.5439 35.89 16.6826C35.89 16.8135 35.9418 16.9121 36.0453 16.9785C36.1488 17.0449 36.3354 17.1084 36.6049 17.1689C36.8764 17.2295 37.0961 17.3018 37.2641 17.3857C37.432 17.4697 37.5561 17.5713 37.6361 17.6904C37.7182 17.8076 37.7592 17.9512 37.7592 18.1211C37.7592 18.4043 37.6459 18.6318 37.4193 18.8037C37.1928 18.9736 36.8988 19.0586 36.5375 19.0586C36.2836 19.0586 36.059 19.0137 35.8637 18.9238C35.6684 18.834 35.515 18.709 35.4037 18.5488C35.2943 18.3867 35.2396 18.2119 35.2396 18.0244H35.7816C35.7914 18.2061 35.8637 18.3506 35.9984 18.458C36.1352 18.5635 36.3148 18.6162 36.5375 18.6162C36.7426 18.6162 36.9066 18.5752 37.0297 18.4932C37.1547 18.4092 37.2172 18.2979 37.2172 18.1592ZM39.4807 19.0586C39.051 19.0586 38.7014 18.918 38.4318 18.6367C38.1623 18.3535 38.0275 17.9756 38.0275 17.5029V17.4033C38.0275 17.0889 38.0871 16.8086 38.2063 16.5625C38.3273 16.3145 38.4953 16.1211 38.7102 15.9824C38.927 15.8418 39.1613 15.7715 39.4133 15.7715C39.8254 15.7715 40.1457 15.9072 40.3742 16.1787C40.6027 16.4502 40.717 16.8389 40.717 17.3447V17.5703H38.5695C38.5773 17.8828 38.6682 18.1357 38.842 18.3291C39.0178 18.5205 39.2404 18.6162 39.51 18.6162C39.7014 18.6162 39.8635 18.5771 39.9963 18.499C40.1291 18.4209 40.2453 18.3174 40.3449 18.1885L40.676 18.4463C40.4104 18.8545 40.0119 19.0586 39.4807 19.0586ZM39.4133 16.2168C39.1945 16.2168 39.0109 16.2969 38.8625 16.457C38.7141 16.6152 38.6223 16.8379 38.5871 17.125H40.175V17.084C40.1594 16.8086 40.0852 16.5957 39.9523 16.4453C39.8195 16.293 39.6398 16.2168 39.4133 16.2168ZM41.5596 15.8301L41.5771 16.2285C41.8193 15.9238 42.1357 15.7715 42.5264 15.7715C43.1963 15.7715 43.5342 16.1494 43.54 16.9053V19H42.998V16.9023C42.9961 16.6738 42.9434 16.5049 42.8398 16.3955C42.7383 16.2861 42.5791 16.2314 42.3623 16.2314C42.1865 16.2314 42.0322 16.2783 41.8994 16.3721C41.7666 16.4658 41.6631 16.5889 41.5889 16.7412V19H41.0469V15.8301H41.5596ZM43.3525 14.5938C43.3525 14.8047 43.292 14.9756 43.1709 15.1064C43.0518 15.2373 42.9023 15.3027 42.7227 15.3027C42.6426 15.3027 42.5732 15.293 42.5146 15.2734C42.4561 15.2539 42.3789 15.2139 42.2832 15.1533C42.1895 15.0928 42.1211 15.0566 42.0781 15.0449C42.0371 15.0312 41.9893 15.0244 41.9346 15.0244C41.8545 15.0244 41.7861 15.0557 41.7295 15.1182C41.6729 15.1787 41.6445 15.2568 41.6445 15.3525L41.2812 15.332C41.2812 15.123 41.3398 14.9502 41.457 14.8135C41.5762 14.6768 41.7266 14.6084 41.9082 14.6084C41.9766 14.6084 42.0381 14.6182 42.0928 14.6377C42.1475 14.6572 42.2217 14.6953 42.3154 14.752C42.4092 14.8086 42.4805 14.8457 42.5293 14.8633C42.5801 14.8809 42.6357 14.8896 42.6963 14.8896C42.7803 14.8896 42.8496 14.8564 42.9043 14.79C42.9609 14.7236 42.9893 14.6465 42.9893 14.5586L43.3525 14.5938ZM46.0145 19C45.9832 18.9375 45.9578 18.8262 45.9383 18.666C45.6863 18.9277 45.3855 19.0586 45.0359 19.0586C44.7234 19.0586 44.4666 18.9707 44.2654 18.7949C44.0662 18.6172 43.9666 18.3926 43.9666 18.1211C43.9666 17.791 44.0916 17.5352 44.3416 17.3535C44.5936 17.1699 44.9471 17.0781 45.4021 17.0781H45.9295V16.8291C45.9295 16.6396 45.8729 16.4893 45.7596 16.3779C45.6463 16.2646 45.4793 16.208 45.2586 16.208C45.0652 16.208 44.9031 16.2568 44.7723 16.3545C44.6414 16.4521 44.576 16.5703 44.576 16.709H44.0311C44.0311 16.5508 44.0867 16.3984 44.198 16.252C44.3113 16.1035 44.4637 15.9863 44.6551 15.9004C44.8484 15.8145 45.0604 15.7715 45.2908 15.7715C45.6561 15.7715 45.9422 15.8633 46.1492 16.0469C46.3562 16.2285 46.4637 16.4795 46.4715 16.7998V18.2588C46.4715 18.5498 46.5086 18.7812 46.5828 18.9531V19H46.0145ZM45.115 18.5869C45.285 18.5869 45.4461 18.543 45.5984 18.4551C45.7508 18.3672 45.8611 18.2529 45.9295 18.1123V17.4619H45.5047C44.8406 17.4619 44.5086 17.6562 44.5086 18.0449C44.5086 18.2148 44.5652 18.3477 44.6785 18.4434C44.7918 18.5391 44.9373 18.5869 45.115 18.5869ZM47.5309 15.8301L47.5455 16.1816C47.7779 15.9082 48.0914 15.7715 48.4859 15.7715C48.9293 15.7715 49.2311 15.9414 49.3912 16.2812C49.4967 16.1289 49.6334 16.0059 49.8014 15.9121C49.9713 15.8184 50.1715 15.7715 50.402 15.7715C51.0973 15.7715 51.4508 16.1396 51.4625 16.876V19H50.9205V16.9082C50.9205 16.6816 50.8687 16.5127 50.7652 16.4014C50.6617 16.2881 50.4879 16.2314 50.2437 16.2314C50.0426 16.2314 49.8756 16.292 49.7428 16.4131C49.61 16.5322 49.5328 16.6934 49.5113 16.8965V19H48.9664V16.9229C48.9664 16.4619 48.7408 16.2314 48.2896 16.2314C47.9342 16.2314 47.691 16.3828 47.5602 16.6855V19H47.0182V15.8301H47.5309ZM51.8393 17.3857C51.8393 17.0752 51.8998 16.7959 52.0209 16.5479C52.1439 16.2998 52.3139 16.1084 52.5307 15.9736C52.7494 15.8389 52.9984 15.7715 53.2777 15.7715C53.7094 15.7715 54.058 15.9209 54.3236 16.2197C54.5912 16.5186 54.725 16.916 54.725 17.4121V17.4502C54.725 17.7588 54.6654 18.0361 54.5463 18.2822C54.4291 18.5264 54.2602 18.7168 54.0395 18.8535C53.8207 18.9902 53.5688 19.0586 53.2836 19.0586C52.8539 19.0586 52.5053 18.9092 52.2377 18.6104C51.9721 18.3115 51.8393 17.916 51.8393 17.4238V17.3857ZM52.3842 17.4502C52.3842 17.8018 52.4652 18.084 52.6273 18.2969C52.7914 18.5098 53.0102 18.6162 53.2836 18.6162C53.559 18.6162 53.7777 18.5088 53.9398 18.2939C54.102 18.0771 54.183 17.7744 54.183 17.3857C54.183 17.0381 54.1 16.7568 53.934 16.542C53.7699 16.3252 53.5512 16.2168 53.2777 16.2168C53.0102 16.2168 52.7943 16.3232 52.6303 16.5361C52.4662 16.749 52.3842 17.0537 52.3842 17.4502ZM56.9504 18.1592C56.9504 18.0127 56.8947 17.8994 56.7834 17.8193C56.674 17.7373 56.4816 17.667 56.2062 17.6084C55.9328 17.5498 55.715 17.4795 55.5529 17.3975C55.3928 17.3154 55.2736 17.2178 55.1955 17.1045C55.1193 16.9912 55.0812 16.8564 55.0812 16.7002C55.0812 16.4404 55.1906 16.2207 55.4094 16.041C55.6301 15.8613 55.9113 15.7715 56.2531 15.7715C56.6125 15.7715 56.9035 15.8643 57.1262 16.0498C57.3508 16.2354 57.4631 16.4727 57.4631 16.7617H56.9182C56.9182 16.6133 56.8547 16.4854 56.7277 16.3779C56.6027 16.2705 56.4445 16.2168 56.2531 16.2168C56.0559 16.2168 55.9016 16.2598 55.7902 16.3457C55.6789 16.4316 55.6232 16.5439 55.6232 16.6826C55.6232 16.8135 55.675 16.9121 55.7785 16.9785C55.882 17.0449 56.0686 17.1084 56.3381 17.1689C56.6096 17.2295 56.8293 17.3018 56.9973 17.3857C57.1652 17.4697 57.2893 17.5713 57.3693 17.6904C57.4514 17.8076 57.4924 17.9512 57.4924 18.1211C57.4924 18.4043 57.3791 18.6318 57.1525 18.8037C56.926 18.9736 56.632 19.0586 56.2707 19.0586C56.0168 19.0586 55.7922 19.0137 55.5969 18.9238C55.4016 18.834 55.2482 18.709 55.1369 18.5488C55.0275 18.3867 54.9729 18.2119 54.9729 18.0244H55.5148C55.5246 18.2061 55.5969 18.3506 55.7316 18.458C55.8684 18.5635 56.048 18.6162 56.2707 18.6162C56.4758 18.6162 56.6398 18.5752 56.7629 18.4932C56.8879 18.4092 56.9504 18.2979 56.9504 18.1592ZM60.9324 18.1592C60.9324 18.0127 60.8768 17.8994 60.7654 17.8193C60.6561 17.7373 60.4637 17.667 60.1883 17.6084C59.9148 17.5498 59.6971 17.4795 59.535 17.3975C59.3748 17.3154 59.2557 17.2178 59.1775 17.1045C59.1014 16.9912 59.0633 16.8564 59.0633 16.7002C59.0633 16.4404 59.1727 16.2207 59.3914 16.041C59.6121 15.8613 59.8934 15.7715 60.2352 15.7715C60.5945 15.7715 60.8855 15.8643 61.1082 16.0498C61.3328 16.2354 61.4451 16.4727 61.4451 16.7617H60.9002C60.9002 16.6133 60.8367 16.4854 60.7098 16.3779C60.5848 16.2705 60.4266 16.2168 60.2352 16.2168C60.0379 16.2168 59.8836 16.2598 59.7723 16.3457C59.6609 16.4316 59.6053 16.5439 59.6053 16.6826C59.6053 16.8135 59.657 16.9121 59.7605 16.9785C59.8641 17.0449 60.0506 17.1084 60.3201 17.1689C60.5916 17.2295 60.8113 17.3018 60.9793 17.3857C61.1473 17.4697 61.2713 17.5713 61.3514 17.6904C61.4334 17.8076 61.4744 17.9512 61.4744 18.1211C61.4744 18.4043 61.3611 18.6318 61.1346 18.8037C60.908 18.9736 60.6141 19.0586 60.2527 19.0586C59.9988 19.0586 59.7742 19.0137 59.5789 18.9238C59.3836 18.834 59.2303 18.709 59.1189 18.5488C59.0096 18.3867 58.9549 18.2119 58.9549 18.0244H59.4969C59.5066 18.2061 59.5789 18.3506 59.7137 18.458C59.8504 18.5635 60.0301 18.6162 60.2527 18.6162C60.4578 18.6162 60.6219 18.5752 60.7449 18.4932C60.8699 18.4092 60.9324 18.2979 60.9324 18.1592ZM63.8375 18.6865C63.6266 18.9346 63.317 19.0586 62.9088 19.0586C62.5709 19.0586 62.3131 18.9609 62.1354 18.7656C61.9596 18.5684 61.8707 18.2773 61.8688 17.8926V15.8301H62.4107V17.8779C62.4107 18.3584 62.6061 18.5986 62.9967 18.5986C63.4107 18.5986 63.6861 18.4443 63.8229 18.1357V15.8301H64.3648V19H63.8492L63.8375 18.6865ZM67.925 18.1592C67.925 18.0127 67.8693 17.8994 67.758 17.8193C67.6486 17.7373 67.4562 17.667 67.1809 17.6084C66.9074 17.5498 66.6896 17.4795 66.5275 17.3975C66.3674 17.3154 66.2482 17.2178 66.1701 17.1045C66.0939 16.9912 66.0559 16.8564 66.0559 16.7002C66.0559 16.4404 66.1652 16.2207 66.384 16.041C66.6047 15.8613 66.8859 15.7715 67.2277 15.7715C67.5871 15.7715 67.8781 15.8643 68.1008 16.0498C68.3254 16.2354 68.4377 16.4727 68.4377 16.7617H67.8928C67.8928 16.6133 67.8293 16.4854 67.7023 16.3779C67.5773 16.2705 67.4191 16.2168 67.2277 16.2168C67.0305 16.2168 66.8762 16.2598 66.7648 16.3457C66.6535 16.4316 66.5979 16.5439 66.5979 16.6826C66.5979 16.8135 66.6496 16.9121 66.7531 16.9785C66.8566 17.0449 67.0432 17.1084 67.3127 17.1689C67.5842 17.2295 67.8039 17.3018 67.9719 17.3857C68.1398 17.4697 68.2639 17.5713 68.3439 17.6904C68.426 17.8076 68.467 17.9512 68.467 18.1211C68.467 18.4043 68.3537 18.6318 68.1271 18.8037C67.9006 18.9736 67.6066 19.0586 67.2453 19.0586C66.9914 19.0586 66.7668 19.0137 66.5715 18.9238C66.3762 18.834 66.2229 18.709 66.1115 18.5488C66.0021 18.3867 65.9475 18.2119 65.9475 18.0244H66.4895C66.4992 18.2061 66.5715 18.3506 66.7062 18.458C66.843 18.5635 67.0227 18.6162 67.2453 18.6162C67.4504 18.6162 67.6145 18.5752 67.7375 18.4932C67.8625 18.4092 67.925 18.2979 67.925 18.1592ZM70.1885 19.0586C69.7588 19.0586 69.4092 18.918 69.1396 18.6367C68.8701 18.3535 68.7354 17.9756 68.7354 17.5029V17.4033C68.7354 17.0889 68.7949 16.8086 68.9141 16.5625C69.0352 16.3145 69.2031 16.1211 69.418 15.9824C69.6348 15.8418 69.8691 15.7715 70.1211 15.7715C70.5332 15.7715 70.8535 15.9072 71.082 16.1787C71.3105 16.4502 71.4248 16.8389 71.4248 17.3447V17.5703H69.2773C69.2852 17.8828 69.376 18.1357 69.5498 18.3291C69.7256 18.5205 69.9482 18.6162 70.2178 18.6162C70.4092 18.6162 70.5713 18.5771 70.7041 18.499C70.8369 18.4209 70.9531 18.3174 71.0527 18.1885L71.3838 18.4463C71.1182 18.8545 70.7197 19.0586 70.1885 19.0586ZM70.1211 16.2168C69.9023 16.2168 69.7188 16.2969 69.5703 16.457C69.4219 16.6152 69.3301 16.8379 69.2949 17.125H70.8828V17.084C70.8672 16.8086 70.793 16.5957 70.6602 16.4453C70.5273 16.293 70.3477 16.2168 70.1211 16.2168ZM71.6258 17.3887C71.6258 16.8945 71.74 16.502 71.9686 16.2109C72.1971 15.918 72.4998 15.7715 72.8768 15.7715C73.2635 15.7715 73.5652 15.9082 73.782 16.1816L73.8084 15.8301H74.3035V18.9238C74.3035 19.334 74.1814 19.6572 73.9373 19.8936C73.6951 20.1299 73.3689 20.248 72.9588 20.248C72.7303 20.248 72.5066 20.1992 72.2879 20.1016C72.0691 20.0039 71.9021 19.8701 71.7869 19.7002L72.0682 19.375C72.3006 19.6621 72.5848 19.8057 72.9207 19.8057C73.1844 19.8057 73.3895 19.7314 73.5359 19.583C73.6844 19.4346 73.7586 19.2256 73.7586 18.9561V18.6836C73.5418 18.9336 73.2459 19.0586 72.8709 19.0586C72.4998 19.0586 72.199 18.9092 71.9686 18.6104C71.74 18.3115 71.6258 17.9043 71.6258 17.3887ZM72.1707 17.4502C72.1707 17.8076 72.2439 18.0889 72.3904 18.2939C72.5369 18.4971 72.742 18.5986 73.0057 18.5986C73.3475 18.5986 73.5984 18.4434 73.7586 18.1328V16.6855C73.5926 16.3828 73.3436 16.2314 73.0115 16.2314C72.7479 16.2314 72.5418 16.334 72.3934 16.5391C72.2449 16.7441 72.1707 17.0479 72.1707 17.4502ZM76.7809 18.6865C76.5699 18.9346 76.2604 19.0586 75.8521 19.0586C75.5143 19.0586 75.2564 18.9609 75.0787 18.7656C74.9029 18.5684 74.8141 18.2773 74.8121 17.8926V15.8301H75.3541V17.8779C75.3541 18.3584 75.5494 18.5986 75.94 18.5986C76.3541 18.5986 76.6295 18.4443 76.7662 18.1357V15.8301H77.3082V19H76.7926L76.7809 18.6865ZM79.3666 16.3164C79.2846 16.3027 79.1957 16.2959 79.1 16.2959C78.7445 16.2959 78.5033 16.4473 78.3764 16.75V19H77.8344V15.8301H78.3617L78.3705 16.1963C78.5482 15.9131 78.8002 15.7715 79.1264 15.7715C79.2318 15.7715 79.3119 15.7852 79.3666 15.8125V16.3164ZM80.1564 19H79.6145V15.8301H80.1564V19ZM79.5705 14.9893C79.5705 14.9014 79.5969 14.8271 79.6496 14.7666C79.7043 14.7061 79.7844 14.6758 79.8898 14.6758C79.9953 14.6758 80.0754 14.7061 80.1301 14.7666C80.1848 14.8271 80.2121 14.9014 80.2121 14.9893C80.2121 15.0771 80.1848 15.1504 80.1301 15.209C80.0754 15.2676 79.9953 15.2969 79.8898 15.2969C79.7844 15.2969 79.7043 15.2676 79.6496 15.209C79.5969 15.1504 79.5705 15.0771 79.5705 14.9893ZM80.5947 17.3887C80.5947 16.9023 80.71 16.5117 80.9404 16.2168C81.1709 15.9199 81.4727 15.7715 81.8457 15.7715C82.2168 15.7715 82.5107 15.8984 82.7275 16.1523V14.5H83.2695V19H82.7715L82.7451 18.6602C82.5283 18.9258 82.2266 19.0586 81.8398 19.0586C81.4727 19.0586 81.1729 18.9082 80.9404 18.6074C80.71 18.3066 80.5947 17.9141 80.5947 17.4297V17.3887ZM81.1367 17.4502C81.1367 17.8096 81.2109 18.0908 81.3594 18.2939C81.5078 18.4971 81.7129 18.5986 81.9746 18.5986C82.3184 18.5986 82.5693 18.4443 82.7275 18.1357V16.6797C82.5654 16.3809 82.3164 16.2314 81.9805 16.2314C81.7148 16.2314 81.5078 16.334 81.3594 16.5391C81.2109 16.7441 81.1367 17.0479 81.1367 17.4502ZM85.7703 19C85.7391 18.9375 85.7137 18.8262 85.6941 18.666C85.4422 18.9277 85.1414 19.0586 84.7918 19.0586C84.4793 19.0586 84.2225 18.9707 84.0213 18.7949C83.8221 18.6172 83.7225 18.3926 83.7225 18.1211C83.7225 17.791 83.8475 17.5352 84.0975 17.3535C84.3494 17.1699 84.7029 17.0781 85.158 17.0781H85.6854V16.8291C85.6854 16.6396 85.6287 16.4893 85.5154 16.3779C85.4021 16.2646 85.2352 16.208 85.0145 16.208C84.8211 16.208 84.659 16.2568 84.5281 16.3545C84.3973 16.4521 84.3318 16.5703 84.3318 16.709H83.7869C83.7869 16.5508 83.8426 16.3984 83.9539 16.252C84.0672 16.1035 84.2195 15.9863 84.4109 15.9004C84.6043 15.8145 84.8162 15.7715 85.0467 15.7715C85.4119 15.7715 85.698 15.8633 85.9051 16.0469C86.1121 16.2285 86.2195 16.4795 86.2273 16.7998V18.2588C86.2273 18.5498 86.2645 18.7812 86.3387 18.9531V19H85.7703ZM84.8709 18.5869C85.0408 18.5869 85.202 18.543 85.3543 18.4551C85.5066 18.3672 85.617 18.2529 85.6854 18.1123V17.4619H85.2605C84.5965 17.4619 84.2645 17.6562 84.2645 18.0449C84.2645 18.2148 84.3211 18.3477 84.4344 18.4434C84.5477 18.5391 84.6932 18.5869 84.8709 18.5869ZM86.6451 17.3887C86.6451 16.9023 86.7604 16.5117 86.9908 16.2168C87.2213 15.9199 87.523 15.7715 87.8961 15.7715C88.2672 15.7715 88.5611 15.8984 88.7779 16.1523V14.5H89.3199V19H88.8219L88.7955 18.6602C88.5787 18.9258 88.277 19.0586 87.8902 19.0586C87.523 19.0586 87.2232 18.9082 86.9908 18.6074C86.7604 18.3066 86.6451 17.9141 86.6451 17.4297V17.3887ZM87.1871 17.4502C87.1871 17.8096 87.2613 18.0908 87.4098 18.2939C87.5582 18.4971 87.7633 18.5986 88.025 18.5986C88.3688 18.5986 88.6197 18.4443 88.7779 18.1357V16.6797C88.6158 16.3809 88.3668 16.2314 88.0309 16.2314C87.7652 16.2314 87.5582 16.334 87.4098 16.5391C87.2613 16.7441 87.1871 17.0479 87.1871 17.4502ZM90.4701 17.7959H89.9809L89.9428 14.7344H90.5111L90.4701 17.7959ZM89.9223 18.7275C89.9223 18.6396 89.9486 18.5664 90.0014 18.5078C90.0561 18.4473 90.1361 18.417 90.2416 18.417C90.3471 18.417 90.4271 18.4473 90.4818 18.5078C90.5365 18.5664 90.5639 18.6396 90.5639 18.7275C90.5639 18.8154 90.5365 18.8887 90.4818 18.9473C90.4271 19.0039 90.3471 19.0322 90.2416 19.0322C90.1361 19.0322 90.0561 19.0039 90.0014 18.9473C89.9486 18.8887 89.9223 18.8154 89.9223 18.7275Z" fill="black"/>
<defs>
<clipPath id="clip0_2:28">
<rect width="16.4211" height="16.4211" fill="white" transform="translate(7.59181 1.26316) rotate(22.6685)"/>
</clipPath>
</defs>
</svg>
