<svg width="118" height="24" viewBox="0 0 118 24" fill="none" xmlns="http://www.w3.org/2000/svg">
<circle cx="12" cy="12" r="11.75" fill="url(#paint0_linear_2:28)" stroke="black" stroke-width="0.5"/>
<path d="M32.457 8.50781C32.457 8.28646 32.3789 8.11719 32.2227 8C32.0664 7.88021 31.7852 7.75521 31.3789 7.625C30.9727 7.49219 30.651 7.36198 30.4141 7.23438C29.7682 6.88542 29.4453 6.41536 29.4453 5.82422C29.4453 5.51693 29.5312 5.24349 29.7031 5.00391C29.8776 4.76172 30.1263 4.57292 30.4492 4.4375C30.7747 4.30208 31.1393 4.23438 31.543 4.23438C31.9492 4.23438 32.3112 4.30859 32.6289 4.45703C32.9466 4.60286 33.1927 4.8099 33.3672 5.07812C33.5443 5.34635 33.6328 5.65104 33.6328 5.99219H32.4609C32.4609 5.73177 32.3789 5.52995 32.2148 5.38672C32.0508 5.24089 31.8203 5.16797 31.5234 5.16797C31.237 5.16797 31.0143 5.22917 30.8555 5.35156C30.6966 5.47135 30.6172 5.63021 30.6172 5.82812C30.6172 6.01302 30.7096 6.16797 30.8945 6.29297C31.082 6.41797 31.3568 6.53516 31.7188 6.64453C32.3854 6.84505 32.8711 7.09375 33.1758 7.39062C33.4805 7.6875 33.6328 8.05729 33.6328 8.5C33.6328 8.99219 33.4466 9.37891 33.0742 9.66016C32.7018 9.9388 32.2005 10.0781 31.5703 10.0781C31.1328 10.0781 30.7344 9.9987 30.375 9.83984C30.0156 9.67839 29.7409 9.45833 29.5508 9.17969C29.3633 8.90104 29.2695 8.57812 29.2695 8.21094H30.4453C30.4453 8.83854 30.8203 9.15234 31.5703 9.15234C31.849 9.15234 32.0664 9.09635 32.2227 8.98438C32.3789 8.86979 32.457 8.71094 32.457 8.50781ZM37.4516 7.53516H35.2016V9.05859H37.8422V10H34.0297V4.3125H37.8344V5.26172H35.2016V6.61719H37.4516V7.53516ZM40.2352 7.91797H39.3016V10H38.1297V4.3125H40.243C40.9148 4.3125 41.4331 4.46224 41.7977 4.76172C42.1622 5.0612 42.3445 5.48438 42.3445 6.03125C42.3445 6.41927 42.2599 6.74349 42.0906 7.00391C41.924 7.26172 41.6701 7.46745 41.3289 7.62109L42.5594 9.94531V10H41.3016L40.2352 7.91797ZM39.3016 6.96875H40.2469C40.5411 6.96875 40.769 6.89453 40.9305 6.74609C41.0919 6.59505 41.1727 6.38802 41.1727 6.125C41.1727 5.85677 41.0958 5.64583 40.9422 5.49219C40.7911 5.33854 40.5581 5.26172 40.243 5.26172H39.3016V6.96875ZM44.8625 8.58984L46.1516 4.3125H47.4563L45.4758 10H44.2531L42.2805 4.3125H43.5813L44.8625 8.58984ZM48.8414 10H47.6695V4.3125H48.8414V10ZM52.9531 7.53516H50.7031V9.05859H53.3438V10H49.5312V4.3125H53.3359V5.26172H50.7031V6.61719H52.9531V7.53516ZM54.8031 9.05859H57.2914V10H53.6313V4.3125H54.8031V9.05859ZM60.9891 7.53516H58.7391V9.05859H61.3797V10H57.5672V4.3125H61.3719V5.26172H58.7391V6.61719H60.9891V7.53516ZM66.132 8.10547C66.0878 8.71745 65.8612 9.19922 65.4523 9.55078C65.0461 9.90234 64.5096 10.0781 63.843 10.0781C63.1138 10.0781 62.5396 9.83333 62.1203 9.34375C61.7036 8.85156 61.4953 8.17708 61.4953 7.32031V6.97266C61.4953 6.42578 61.5917 5.94401 61.7844 5.52734C61.9771 5.11068 62.2518 4.79167 62.6086 4.57031C62.968 4.34635 63.3846 4.23438 63.8586 4.23438C64.5148 4.23438 65.0435 4.41016 65.4445 4.76172C65.8456 5.11328 66.0773 5.60677 66.1398 6.24219H64.968C64.9393 5.875 64.8365 5.60938 64.6594 5.44531C64.4849 5.27865 64.218 5.19531 63.8586 5.19531C63.468 5.19531 63.175 5.33594 62.9797 5.61719C62.787 5.89583 62.688 6.32943 62.6828 6.91797V7.34766C62.6828 7.96224 62.7753 8.41146 62.9602 8.69531C63.1477 8.97917 63.4419 9.12109 63.843 9.12109C64.2049 9.12109 64.4745 9.03906 64.6516 8.875C64.8312 8.70833 64.9341 8.45182 64.9602 8.10547H66.132ZM70.6656 5.26172H68.9234V10H67.7516V5.26172H66.0328V4.3125H70.6656V5.26172ZM73.043 7.91797H72.1094V10H70.9375V4.3125H73.0508C73.7227 4.3125 74.2409 4.46224 74.6055 4.76172C74.9701 5.0612 75.1523 5.48438 75.1523 6.03125C75.1523 6.41927 75.0677 6.74349 74.8984 7.00391C74.7318 7.26172 74.4779 7.46745 74.1367 7.62109L75.3672 9.94531V10H74.1094L73.043 7.91797ZM72.1094 6.96875H73.0547C73.349 6.96875 73.5768 6.89453 73.7383 6.74609C73.8997 6.59505 73.9805 6.38802 73.9805 6.125C73.9805 5.85677 73.9036 5.64583 73.75 5.49219C73.599 5.33854 73.3659 5.26172 73.0508 5.26172H72.1094V6.96875ZM80.3187 7.28516C80.3187 7.84505 80.2198 8.33594 80.0219 8.75781C79.824 9.17969 79.5401 9.50521 79.1703 9.73438C78.8031 9.96354 78.3812 10.0781 77.9047 10.0781C77.4333 10.0781 77.0128 9.96484 76.643 9.73828C76.2732 9.51172 75.9867 9.1888 75.7836 8.76953C75.5805 8.34766 75.4776 7.86328 75.475 7.31641V7.03516C75.475 6.47526 75.5753 5.98307 75.7758 5.55859C75.9789 5.13151 76.2641 4.80469 76.6312 4.57812C77.001 4.34896 77.4229 4.23438 77.8969 4.23438C78.3708 4.23438 78.7914 4.34896 79.1586 4.57812C79.5284 4.80469 79.8135 5.13151 80.0141 5.55859C80.2172 5.98307 80.3187 6.47396 80.3187 7.03125V7.28516ZM79.1312 7.02734C79.1312 6.43099 79.0245 5.97786 78.8109 5.66797C78.5974 5.35807 78.2927 5.20312 77.8969 5.20312C77.5036 5.20312 77.2003 5.35677 76.9867 5.66406C76.7732 5.96875 76.6651 6.41667 76.6625 7.00781V7.28516C76.6625 7.86589 76.7693 8.31641 76.9828 8.63672C77.1964 8.95703 77.5036 9.11719 77.9047 9.11719C78.2979 9.11719 78.6 8.96354 78.8109 8.65625C79.0219 8.34635 79.1286 7.89583 79.1312 7.30469V7.02734ZM85.3953 10H84.2234L81.9422 6.25781V10H80.7703V4.3125H81.9422L84.2273 8.0625V4.3125H85.3953V10ZM87.2648 10H86.093V4.3125H87.2648V10ZM92.4195 8.10547C92.3753 8.71745 92.1487 9.19922 91.7398 9.55078C91.3336 9.90234 90.7971 10.0781 90.1305 10.0781C89.4013 10.0781 88.8271 9.83333 88.4078 9.34375C87.9911 8.85156 87.7828 8.17708 87.7828 7.32031V6.97266C87.7828 6.42578 87.8792 5.94401 88.0719 5.52734C88.2646 5.11068 88.5393 4.79167 88.8961 4.57031C89.2555 4.34635 89.6721 4.23438 90.1461 4.23438C90.8023 4.23438 91.331 4.41016 91.732 4.76172C92.1331 5.11328 92.3648 5.60677 92.4273 6.24219H91.2555C91.2268 5.875 91.124 5.60938 90.9469 5.44531C90.7724 5.27865 90.5055 5.19531 90.1461 5.19531C89.7555 5.19531 89.4625 5.33594 89.2672 5.61719C89.0745 5.89583 88.9755 6.32943 88.9703 6.91797V7.34766C88.9703 7.96224 89.0628 8.41146 89.2477 8.69531C89.4352 8.97917 89.7294 9.12109 90.1305 9.12109C90.4924 9.12109 90.762 9.03906 90.9391 8.875C91.1188 8.70833 91.2216 8.45182 91.2477 8.10547H92.4195ZM95.7383 8.50781C95.7383 8.28646 95.6602 8.11719 95.5039 8C95.3477 7.88021 95.0664 7.75521 94.6602 7.625C94.2539 7.49219 93.9323 7.36198 93.6953 7.23438C93.0495 6.88542 92.7266 6.41536 92.7266 5.82422C92.7266 5.51693 92.8125 5.24349 92.9844 5.00391C93.1589 4.76172 93.4076 4.57292 93.7305 4.4375C94.056 4.30208 94.4206 4.23438 94.8242 4.23438C95.2305 4.23438 95.5924 4.30859 95.9102 4.45703C96.2279 4.60286 96.474 4.8099 96.6484 5.07812C96.8255 5.34635 96.9141 5.65104 96.9141 5.99219H95.7422C95.7422 5.73177 95.6602 5.52995 95.4961 5.38672C95.332 5.24089 95.1016 5.16797 94.8047 5.16797C94.5182 5.16797 94.2956 5.22917 94.1367 5.35156C93.9779 5.47135 93.8984 5.63021 93.8984 5.82812C93.8984 6.01302 93.9909 6.16797 94.1758 6.29297C94.3633 6.41797 94.638 6.53516 95 6.64453C95.6667 6.84505 96.1523 7.09375 96.457 7.39062C96.7617 7.6875 96.9141 8.05729 96.9141 8.5C96.9141 8.99219 96.7279 9.37891 96.3555 9.66016C95.9831 9.9388 95.4818 10.0781 94.8516 10.0781C94.4141 10.0781 94.0156 9.9987 93.6562 9.83984C93.2969 9.67839 93.0221 9.45833 92.832 9.17969C92.6445 8.90104 92.5508 8.57812 92.5508 8.21094H93.7266C93.7266 8.83854 94.1016 9.15234 94.8516 9.15234C95.1302 9.15234 95.3477 9.09635 95.5039 8.98438C95.6602 8.86979 95.7383 8.71094 95.7383 8.50781ZM103.368 8.10547C103.324 8.71745 103.097 9.19922 102.688 9.55078C102.282 9.90234 101.746 10.0781 101.079 10.0781C100.35 10.0781 99.7755 9.83333 99.3562 9.34375C98.9396 8.85156 98.7312 8.17708 98.7312 7.32031V6.97266C98.7312 6.42578 98.8276 5.94401 99.0203 5.52734C99.213 5.11068 99.4878 4.79167 99.8445 4.57031C100.204 4.34635 100.621 4.23438 101.095 4.23438C101.751 4.23438 102.279 4.41016 102.68 4.76172C103.082 5.11328 103.313 5.60677 103.376 6.24219H102.204C102.175 5.875 102.072 5.60938 101.895 5.44531C101.721 5.27865 101.454 5.19531 101.095 5.19531C100.704 5.19531 100.411 5.33594 100.216 5.61719C100.023 5.89583 99.924 6.32943 99.9187 6.91797V7.34766C99.9187 7.96224 100.011 8.41146 100.196 8.69531C100.384 8.97917 100.678 9.12109 101.079 9.12109C101.441 9.12109 101.71 9.03906 101.887 8.875C102.067 8.70833 102.17 8.45182 102.196 8.10547H103.368ZM108.202 8.10547C108.158 8.71745 107.932 9.19922 107.523 9.55078C107.116 9.90234 106.58 10.0781 105.913 10.0781C105.184 10.0781 104.61 9.83333 104.191 9.34375C103.774 8.85156 103.566 8.17708 103.566 7.32031V6.97266C103.566 6.42578 103.662 5.94401 103.855 5.52734C104.047 5.11068 104.322 4.79167 104.679 4.57031C105.038 4.34635 105.455 4.23438 105.929 4.23438C106.585 4.23438 107.114 4.41016 107.515 4.76172C107.916 5.11328 108.148 5.60677 108.21 6.24219H107.038C107.01 5.875 106.907 5.60938 106.73 5.44531C106.555 5.27865 106.288 5.19531 105.929 5.19531C105.538 5.19531 105.245 5.33594 105.05 5.61719C104.857 5.89583 104.758 6.32943 104.753 6.91797V7.34766C104.753 7.96224 104.846 8.41146 105.03 8.69531C105.218 8.97917 105.512 9.12109 105.913 9.12109C106.275 9.12109 106.545 9.03906 106.722 8.875C106.902 8.70833 107.004 8.45182 107.03 8.10547H108.202ZM112.736 5.26172H110.994V10H109.822V5.26172H108.103V4.3125H112.736V5.26172ZM115.172 8.58984L116.461 4.3125H117.766L115.785 10H114.562L112.59 4.3125H113.891L115.172 8.58984Z" fill="black"/>
<path d="M29.498 16.9961H29.9902L30.0283 20.0547H29.46L29.498 16.9961ZM30.0488 16.082C30.0488 16.1699 30.0215 16.2441 29.9668 16.3047C29.9141 16.3652 29.835 16.3955 29.7295 16.3955C29.624 16.3955 29.5439 16.3652 29.4893 16.3047C29.4346 16.2441 29.4072 16.1699 29.4072 16.082C29.4072 15.9941 29.4346 15.9209 29.4893 15.8623C29.5439 15.8037 29.624 15.7744 29.7295 15.7744C29.835 15.7744 29.9141 15.8037 29.9668 15.8623C30.0215 15.9209 30.0488 15.9941 30.0488 16.082ZM30.66 19V14.7344H31.8641C32.2352 14.7344 32.5633 14.8164 32.8484 14.9805C33.1336 15.1445 33.3533 15.3779 33.5076 15.6807C33.6639 15.9834 33.743 16.3311 33.7449 16.7236V16.9961C33.7449 17.3984 33.6668 17.751 33.5105 18.0537C33.3563 18.3564 33.1346 18.5889 32.8455 18.751C32.5584 18.9131 32.2234 18.9961 31.8406 19H30.66ZM31.2225 15.1973V18.54H31.8143C32.2479 18.54 32.5848 18.4053 32.825 18.1357C33.0672 17.8662 33.1883 17.4824 33.1883 16.9844V16.7354C33.1883 16.251 33.074 15.875 32.8455 15.6074C32.6189 15.3379 32.2967 15.2012 31.8787 15.1973H31.2225ZM34.8014 19H34.2594V15.8301H34.8014V19ZM34.2154 14.9893C34.2154 14.9014 34.2418 14.8271 34.2945 14.7666C34.3492 14.7061 34.4293 14.6758 34.5348 14.6758C34.6402 14.6758 34.7203 14.7061 34.775 14.7666C34.8297 14.8271 34.857 14.9014 34.857 14.9893C34.857 15.0771 34.8297 15.1504 34.775 15.209C34.7203 15.2676 34.6402 15.2969 34.5348 15.2969C34.4293 15.2969 34.3492 15.2676 34.2945 15.209C34.2418 15.1504 34.2154 15.0771 34.2154 14.9893ZM37.2172 18.1592C37.2172 18.0127 37.1615 17.8994 37.0502 17.8193C36.9408 17.7373 36.7484 17.667 36.473 17.6084C36.1996 17.5498 35.9818 17.4795 35.8197 17.3975C35.6596 17.3154 35.5404 17.2178 35.4623 17.1045C35.3861 16.9912 35.348 16.8564 35.348 16.7002C35.348 16.4404 35.4574 16.2207 35.6762 16.041C35.8969 15.8613 36.1781 15.7715 36.5199 15.7715C36.8793 15.7715 37.1703 15.8643 37.393 16.0498C37.6176 16.2354 37.7299 16.4727 37.7299 16.7617H37.185C37.185 16.6133 37.1215 16.4854 36.9945 16.3779C36.8695 16.2705 36.7113 16.2168 36.5199 16.2168C36.3227 16.2168 36.1684 16.2598 36.057 16.3457C35.9457 16.4316 35.89 16.5439 35.89 16.6826C35.89 16.8135 35.9418 16.9121 36.0453 16.9785C36.1488 17.0449 36.3354 17.1084 36.6049 17.1689C36.8764 17.2295 37.0961 17.3018 37.2641 17.3857C37.432 17.4697 37.5561 17.5713 37.6361 17.6904C37.7182 17.8076 37.7592 17.9512 37.7592 18.1211C37.7592 18.4043 37.6459 18.6318 37.4193 18.8037C37.1928 18.9736 36.8988 19.0586 36.5375 19.0586C36.2836 19.0586 36.059 19.0137 35.8637 18.9238C35.6684 18.834 35.515 18.709 35.4037 18.5488C35.2943 18.3867 35.2396 18.2119 35.2396 18.0244H35.7816C35.7914 18.2061 35.8637 18.3506 35.9984 18.458C36.1352 18.5635 36.3148 18.6162 36.5375 18.6162C36.7426 18.6162 36.9066 18.5752 37.0297 18.4932C37.1547 18.4092 37.2172 18.2979 37.2172 18.1592ZM39.4807 19.0586C39.051 19.0586 38.7014 18.918 38.4318 18.6367C38.1623 18.3535 38.0275 17.9756 38.0275 17.5029V17.4033C38.0275 17.0889 38.0871 16.8086 38.2063 16.5625C38.3273 16.3145 38.4953 16.1211 38.7102 15.9824C38.927 15.8418 39.1613 15.7715 39.4133 15.7715C39.8254 15.7715 40.1457 15.9072 40.3742 16.1787C40.6027 16.4502 40.717 16.8389 40.717 17.3447V17.5703H38.5695C38.5773 17.8828 38.6682 18.1357 38.842 18.3291C39.0178 18.5205 39.2404 18.6162 39.51 18.6162C39.7014 18.6162 39.8635 18.5771 39.9963 18.499C40.1291 18.4209 40.2453 18.3174 40.3449 18.1885L40.676 18.4463C40.4104 18.8545 40.0119 19.0586 39.4807 19.0586ZM39.4133 16.2168C39.1945 16.2168 39.0109 16.2969 38.8625 16.457C38.7141 16.6152 38.6223 16.8379 38.5871 17.125H40.175V17.084C40.1594 16.8086 40.0852 16.5957 39.9523 16.4453C39.8195 16.293 39.6398 16.2168 39.4133 16.2168ZM41.5596 15.8301L41.5771 16.2285C41.8193 15.9238 42.1357 15.7715 42.5264 15.7715C43.1963 15.7715 43.5342 16.1494 43.54 16.9053V19H42.998V16.9023C42.9961 16.6738 42.9434 16.5049 42.8398 16.3955C42.7383 16.2861 42.5791 16.2314 42.3623 16.2314C42.1865 16.2314 42.0322 16.2783 41.8994 16.3721C41.7666 16.4658 41.6631 16.5889 41.5889 16.7412V19H41.0469V15.8301H41.5596ZM43.3525 14.5938C43.3525 14.8047 43.292 14.9756 43.1709 15.1064C43.0518 15.2373 42.9023 15.3027 42.7227 15.3027C42.6426 15.3027 42.5732 15.293 42.5146 15.2734C42.4561 15.2539 42.3789 15.2139 42.2832 15.1533C42.1895 15.0928 42.1211 15.0566 42.0781 15.0449C42.0371 15.0312 41.9893 15.0244 41.9346 15.0244C41.8545 15.0244 41.7861 15.0557 41.7295 15.1182C41.6729 15.1787 41.6445 15.2568 41.6445 15.3525L41.2812 15.332C41.2812 15.123 41.3398 14.9502 41.457 14.8135C41.5762 14.6768 41.7266 14.6084 41.9082 14.6084C41.9766 14.6084 42.0381 14.6182 42.0928 14.6377C42.1475 14.6572 42.2217 14.6953 42.3154 14.752C42.4092 14.8086 42.4805 14.8457 42.5293 14.8633C42.5801 14.8809 42.6357 14.8896 42.6963 14.8896C42.7803 14.8896 42.8496 14.8564 42.9043 14.79C42.9609 14.7236 42.9893 14.6465 42.9893 14.5586L43.3525 14.5938ZM46.0145 19C45.9832 18.9375 45.9578 18.8262 45.9383 18.666C45.6863 18.9277 45.3855 19.0586 45.0359 19.0586C44.7234 19.0586 44.4666 18.9707 44.2654 18.7949C44.0662 18.6172 43.9666 18.3926 43.9666 18.1211C43.9666 17.791 44.0916 17.5352 44.3416 17.3535C44.5936 17.1699 44.9471 17.0781 45.4021 17.0781H45.9295V16.8291C45.9295 16.6396 45.8729 16.4893 45.7596 16.3779C45.6463 16.2646 45.4793 16.208 45.2586 16.208C45.0652 16.208 44.9031 16.2568 44.7723 16.3545C44.6414 16.4521 44.576 16.5703 44.576 16.709H44.0311C44.0311 16.5508 44.0867 16.3984 44.198 16.252C44.3113 16.1035 44.4637 15.9863 44.6551 15.9004C44.8484 15.8145 45.0604 15.7715 45.2908 15.7715C45.6561 15.7715 45.9422 15.8633 46.1492 16.0469C46.3562 16.2285 46.4637 16.4795 46.4715 16.7998V18.2588C46.4715 18.5498 46.5086 18.7812 46.5828 18.9531V19H46.0145ZM45.115 18.5869C45.285 18.5869 45.4461 18.543 45.5984 18.4551C45.7508 18.3672 45.8611 18.2529 45.9295 18.1123V17.4619H45.5047C44.8406 17.4619 44.5086 17.6562 44.5086 18.0449C44.5086 18.2148 44.5652 18.3477 44.6785 18.4434C44.7918 18.5391 44.9373 18.5869 45.115 18.5869ZM47.5309 15.8301L47.5455 16.1816C47.7779 15.9082 48.0914 15.7715 48.4859 15.7715C48.9293 15.7715 49.2311 15.9414 49.3912 16.2812C49.4967 16.1289 49.6334 16.0059 49.8014 15.9121C49.9713 15.8184 50.1715 15.7715 50.402 15.7715C51.0973 15.7715 51.4508 16.1396 51.4625 16.876V19H50.9205V16.9082C50.9205 16.6816 50.8687 16.5127 50.7652 16.4014C50.6617 16.2881 50.4879 16.2314 50.2437 16.2314C50.0426 16.2314 49.8756 16.292 49.7428 16.4131C49.61 16.5322 49.5328 16.6934 49.5113 16.8965V19H48.9664V16.9229C48.9664 16.4619 48.7408 16.2314 48.2896 16.2314C47.9342 16.2314 47.691 16.3828 47.5602 16.6855V19H47.0182V15.8301H47.5309ZM51.8393 17.3857C51.8393 17.0752 51.8998 16.7959 52.0209 16.5479C52.1439 16.2998 52.3139 16.1084 52.5307 15.9736C52.7494 15.8389 52.9984 15.7715 53.2777 15.7715C53.7094 15.7715 54.058 15.9209 54.3236 16.2197C54.5912 16.5186 54.725 16.916 54.725 17.4121V17.4502C54.725 17.7588 54.6654 18.0361 54.5463 18.2822C54.4291 18.5264 54.2602 18.7168 54.0395 18.8535C53.8207 18.9902 53.5688 19.0586 53.2836 19.0586C52.8539 19.0586 52.5053 18.9092 52.2377 18.6104C51.9721 18.3115 51.8393 17.916 51.8393 17.4238V17.3857ZM52.3842 17.4502C52.3842 17.8018 52.4652 18.084 52.6273 18.2969C52.7914 18.5098 53.0102 18.6162 53.2836 18.6162C53.559 18.6162 53.7777 18.5088 53.9398 18.2939C54.102 18.0771 54.183 17.7744 54.183 17.3857C54.183 17.0381 54.1 16.7568 53.934 16.542C53.7699 16.3252 53.5512 16.2168 53.2777 16.2168C53.0102 16.2168 52.7943 16.3232 52.6303 16.5361C52.4662 16.749 52.3842 17.0537 52.3842 17.4502ZM56.9504 18.1592C56.9504 18.0127 56.8947 17.8994 56.7834 17.8193C56.674 17.7373 56.4816 17.667 56.2062 17.6084C55.9328 17.5498 55.715 17.4795 55.5529 17.3975C55.3928 17.3154 55.2736 17.2178 55.1955 17.1045C55.1193 16.9912 55.0812 16.8564 55.0812 16.7002C55.0812 16.4404 55.1906 16.2207 55.4094 16.041C55.6301 15.8613 55.9113 15.7715 56.2531 15.7715C56.6125 15.7715 56.9035 15.8643 57.1262 16.0498C57.3508 16.2354 57.4631 16.4727 57.4631 16.7617H56.9182C56.9182 16.6133 56.8547 16.4854 56.7277 16.3779C56.6027 16.2705 56.4445 16.2168 56.2531 16.2168C56.0559 16.2168 55.9016 16.2598 55.7902 16.3457C55.6789 16.4316 55.6232 16.5439 55.6232 16.6826C55.6232 16.8135 55.675 16.9121 55.7785 16.9785C55.882 17.0449 56.0686 17.1084 56.3381 17.1689C56.6096 17.2295 56.8293 17.3018 56.9973 17.3857C57.1652 17.4697 57.2893 17.5713 57.3693 17.6904C57.4514 17.8076 57.4924 17.9512 57.4924 18.1211C57.4924 18.4043 57.3791 18.6318 57.1525 18.8037C56.926 18.9736 56.632 19.0586 56.2707 19.0586C56.0168 19.0586 55.7922 19.0137 55.5969 18.9238C55.4016 18.834 55.2482 18.709 55.1369 18.5488C55.0275 18.3867 54.9729 18.2119 54.9729 18.0244H55.5148C55.5246 18.2061 55.5969 18.3506 55.7316 18.458C55.8684 18.5635 56.048 18.6162 56.2707 18.6162C56.4758 18.6162 56.6398 18.5752 56.7629 18.4932C56.8879 18.4092 56.9504 18.2979 56.9504 18.1592ZM60.9324 18.1592C60.9324 18.0127 60.8768 17.8994 60.7654 17.8193C60.6561 17.7373 60.4637 17.667 60.1883 17.6084C59.9148 17.5498 59.6971 17.4795 59.535 17.3975C59.3748 17.3154 59.2557 17.2178 59.1775 17.1045C59.1014 16.9912 59.0633 16.8564 59.0633 16.7002C59.0633 16.4404 59.1727 16.2207 59.3914 16.041C59.6121 15.8613 59.8934 15.7715 60.2352 15.7715C60.5945 15.7715 60.8855 15.8643 61.1082 16.0498C61.3328 16.2354 61.4451 16.4727 61.4451 16.7617H60.9002C60.9002 16.6133 60.8367 16.4854 60.7098 16.3779C60.5848 16.2705 60.4266 16.2168 60.2352 16.2168C60.0379 16.2168 59.8836 16.2598 59.7723 16.3457C59.6609 16.4316 59.6053 16.5439 59.6053 16.6826C59.6053 16.8135 59.657 16.9121 59.7605 16.9785C59.8641 17.0449 60.0506 17.1084 60.3201 17.1689C60.5916 17.2295 60.8113 17.3018 60.9793 17.3857C61.1473 17.4697 61.2713 17.5713 61.3514 17.6904C61.4334 17.8076 61.4744 17.9512 61.4744 18.1211C61.4744 18.4043 61.3611 18.6318 61.1346 18.8037C60.908 18.9736 60.6141 19.0586 60.2527 19.0586C59.9988 19.0586 59.7742 19.0137 59.5789 18.9238C59.3836 18.834 59.2303 18.709 59.1189 18.5488C59.0096 18.3867 58.9549 18.2119 58.9549 18.0244H59.4969C59.5066 18.2061 59.5789 18.3506 59.7137 18.458C59.8504 18.5635 60.0301 18.6162 60.2527 18.6162C60.4578 18.6162 60.6219 18.5752 60.7449 18.4932C60.8699 18.4092 60.9324 18.2979 60.9324 18.1592ZM63.8375 18.6865C63.6266 18.9346 63.317 19.0586 62.9088 19.0586C62.5709 19.0586 62.3131 18.9609 62.1354 18.7656C61.9596 18.5684 61.8707 18.2773 61.8688 17.8926V15.8301H62.4107V17.8779C62.4107 18.3584 62.6061 18.5986 62.9967 18.5986C63.4107 18.5986 63.6861 18.4443 63.8229 18.1357V15.8301H64.3648V19H63.8492L63.8375 18.6865ZM67.925 18.1592C67.925 18.0127 67.8693 17.8994 67.758 17.8193C67.6486 17.7373 67.4562 17.667 67.1809 17.6084C66.9074 17.5498 66.6896 17.4795 66.5275 17.3975C66.3674 17.3154 66.2482 17.2178 66.1701 17.1045C66.0939 16.9912 66.0559 16.8564 66.0559 16.7002C66.0559 16.4404 66.1652 16.2207 66.384 16.041C66.6047 15.8613 66.8859 15.7715 67.2277 15.7715C67.5871 15.7715 67.8781 15.8643 68.1008 16.0498C68.3254 16.2354 68.4377 16.4727 68.4377 16.7617H67.8928C67.8928 16.6133 67.8293 16.4854 67.7023 16.3779C67.5773 16.2705 67.4191 16.2168 67.2277 16.2168C67.0305 16.2168 66.8762 16.2598 66.7648 16.3457C66.6535 16.4316 66.5979 16.5439 66.5979 16.6826C66.5979 16.8135 66.6496 16.9121 66.7531 16.9785C66.8566 17.0449 67.0432 17.1084 67.3127 17.1689C67.5842 17.2295 67.8039 17.3018 67.9719 17.3857C68.1398 17.4697 68.2639 17.5713 68.3439 17.6904C68.426 17.8076 68.467 17.9512 68.467 18.1211C68.467 18.4043 68.3537 18.6318 68.1271 18.8037C67.9006 18.9736 67.6066 19.0586 67.2453 19.0586C66.9914 19.0586 66.7668 19.0137 66.5715 18.9238C66.3762 18.834 66.2229 18.709 66.1115 18.5488C66.0021 18.3867 65.9475 18.2119 65.9475 18.0244H66.4895C66.4992 18.2061 66.5715 18.3506 66.7062 18.458C66.843 18.5635 67.0227 18.6162 67.2453 18.6162C67.4504 18.6162 67.6145 18.5752 67.7375 18.4932C67.8625 18.4092 67.925 18.2979 67.925 18.1592ZM70.1885 19.0586C69.7588 19.0586 69.4092 18.918 69.1396 18.6367C68.8701 18.3535 68.7354 17.9756 68.7354 17.5029V17.4033C68.7354 17.0889 68.7949 16.8086 68.9141 16.5625C69.0352 16.3145 69.2031 16.1211 69.418 15.9824C69.6348 15.8418 69.8691 15.7715 70.1211 15.7715C70.5332 15.7715 70.8535 15.9072 71.082 16.1787C71.3105 16.4502 71.4248 16.8389 71.4248 17.3447V17.5703H69.2773C69.2852 17.8828 69.376 18.1357 69.5498 18.3291C69.7256 18.5205 69.9482 18.6162 70.2178 18.6162C70.4092 18.6162 70.5713 18.5771 70.7041 18.499C70.8369 18.4209 70.9531 18.3174 71.0527 18.1885L71.3838 18.4463C71.1182 18.8545 70.7197 19.0586 70.1885 19.0586ZM70.1211 16.2168C69.9023 16.2168 69.7188 16.2969 69.5703 16.457C69.4219 16.6152 69.3301 16.8379 69.2949 17.125H70.8828V17.084C70.8672 16.8086 70.793 16.5957 70.6602 16.4453C70.5273 16.293 70.3477 16.2168 70.1211 16.2168ZM71.6258 17.3887C71.6258 16.8945 71.74 16.502 71.9686 16.2109C72.1971 15.918 72.4998 15.7715 72.8768 15.7715C73.2635 15.7715 73.5652 15.9082 73.782 16.1816L73.8084 15.8301H74.3035V18.9238C74.3035 19.334 74.1814 19.6572 73.9373 19.8936C73.6951 20.1299 73.3689 20.248 72.9588 20.248C72.7303 20.248 72.5066 20.1992 72.2879 20.1016C72.0691 20.0039 71.9021 19.8701 71.7869 19.7002L72.0682 19.375C72.3006 19.6621 72.5848 19.8057 72.9207 19.8057C73.1844 19.8057 73.3895 19.7314 73.5359 19.583C73.6844 19.4346 73.7586 19.2256 73.7586 18.9561V18.6836C73.5418 18.9336 73.2459 19.0586 72.8709 19.0586C72.4998 19.0586 72.199 18.9092 71.9686 18.6104C71.74 18.3115 71.6258 17.9043 71.6258 17.3887ZM72.1707 17.4502C72.1707 17.8076 72.2439 18.0889 72.3904 18.2939C72.5369 18.4971 72.742 18.5986 73.0057 18.5986C73.3475 18.5986 73.5984 18.4434 73.7586 18.1328V16.6855C73.5926 16.3828 73.3436 16.2314 73.0115 16.2314C72.7479 16.2314 72.5418 16.334 72.3934 16.5391C72.2449 16.7441 72.1707 17.0479 72.1707 17.4502ZM76.7809 18.6865C76.5699 18.9346 76.2604 19.0586 75.8521 19.0586C75.5143 19.0586 75.2564 18.9609 75.0787 18.7656C74.9029 18.5684 74.8141 18.2773 74.8121 17.8926V15.8301H75.3541V17.8779C75.3541 18.3584 75.5494 18.5986 75.94 18.5986C76.3541 18.5986 76.6295 18.4443 76.7662 18.1357V15.8301H77.3082V19H76.7926L76.7809 18.6865ZM79.3666 16.3164C79.2846 16.3027 79.1957 16.2959 79.1 16.2959C78.7445 16.2959 78.5033 16.4473 78.3764 16.75V19H77.8344V15.8301H78.3617L78.3705 16.1963C78.5482 15.9131 78.8002 15.7715 79.1264 15.7715C79.2318 15.7715 79.3119 15.7852 79.3666 15.8125V16.3164ZM80.1564 19H79.6145V15.8301H80.1564V19ZM79.5705 14.9893C79.5705 14.9014 79.5969 14.8271 79.6496 14.7666C79.7043 14.7061 79.7844 14.6758 79.8898 14.6758C79.9953 14.6758 80.0754 14.7061 80.1301 14.7666C80.1848 14.8271 80.2121 14.9014 80.2121 14.9893C80.2121 15.0771 80.1848 15.1504 80.1301 15.209C80.0754 15.2676 79.9953 15.2969 79.8898 15.2969C79.7844 15.2969 79.7043 15.2676 79.6496 15.209C79.5969 15.1504 79.5705 15.0771 79.5705 14.9893ZM80.5947 17.3887C80.5947 16.9023 80.71 16.5117 80.9404 16.2168C81.1709 15.9199 81.4727 15.7715 81.8457 15.7715C82.2168 15.7715 82.5107 15.8984 82.7275 16.1523V14.5H83.2695V19H82.7715L82.7451 18.6602C82.5283 18.9258 82.2266 19.0586 81.8398 19.0586C81.4727 19.0586 81.1729 18.9082 80.9404 18.6074C80.71 18.3066 80.5947 17.9141 80.5947 17.4297V17.3887ZM81.1367 17.4502C81.1367 17.8096 81.2109 18.0908 81.3594 18.2939C81.5078 18.4971 81.7129 18.5986 81.9746 18.5986C82.3184 18.5986 82.5693 18.4443 82.7275 18.1357V16.6797C82.5654 16.3809 82.3164 16.2314 81.9805 16.2314C81.7148 16.2314 81.5078 16.334 81.3594 16.5391C81.2109 16.7441 81.1367 17.0479 81.1367 17.4502ZM85.7703 19C85.7391 18.9375 85.7137 18.8262 85.6941 18.666C85.4422 18.9277 85.1414 19.0586 84.7918 19.0586C84.4793 19.0586 84.2225 18.9707 84.0213 18.7949C83.8221 18.6172 83.7225 18.3926 83.7225 18.1211C83.7225 17.791 83.8475 17.5352 84.0975 17.3535C84.3494 17.1699 84.7029 17.0781 85.158 17.0781H85.6854V16.8291C85.6854 16.6396 85.6287 16.4893 85.5154 16.3779C85.4021 16.2646 85.2352 16.208 85.0145 16.208C84.8211 16.208 84.659 16.2568 84.5281 16.3545C84.3973 16.4521 84.3318 16.5703 84.3318 16.709H83.7869C83.7869 16.5508 83.8426 16.3984 83.9539 16.252C84.0672 16.1035 84.2195 15.9863 84.4109 15.9004C84.6043 15.8145 84.8162 15.7715 85.0467 15.7715C85.4119 15.7715 85.698 15.8633 85.9051 16.0469C86.1121 16.2285 86.2195 16.4795 86.2273 16.7998V18.2588C86.2273 18.5498 86.2645 18.7812 86.3387 18.9531V19H85.7703ZM84.8709 18.5869C85.0408 18.5869 85.202 18.543 85.3543 18.4551C85.5066 18.3672 85.617 18.2529 85.6854 18.1123V17.4619H85.2605C84.5965 17.4619 84.2645 17.6562 84.2645 18.0449C84.2645 18.2148 84.3211 18.3477 84.4344 18.4434C84.5477 18.5391 84.6932 18.5869 84.8709 18.5869ZM86.6451 17.3887C86.6451 16.9023 86.7604 16.5117 86.9908 16.2168C87.2213 15.9199 87.523 15.7715 87.8961 15.7715C88.2672 15.7715 88.5611 15.8984 88.7779 16.1523V14.5H89.3199V19H88.8219L88.7955 18.6602C88.5787 18.9258 88.277 19.0586 87.8902 19.0586C87.523 19.0586 87.2232 18.9082 86.9908 18.6074C86.7604 18.3066 86.6451 17.9141 86.6451 17.4297V17.3887ZM87.1871 17.4502C87.1871 17.8096 87.2613 18.0908 87.4098 18.2939C87.5582 18.4971 87.7633 18.5986 88.025 18.5986C88.3688 18.5986 88.6197 18.4443 88.7779 18.1357V16.6797C88.6158 16.3809 88.3668 16.2314 88.0309 16.2314C87.7652 16.2314 87.5582 16.334 87.4098 16.5391C87.2613 16.7441 87.1871 17.0479 87.1871 17.4502ZM90.4701 17.7959H89.9809L89.9428 14.7344H90.5111L90.4701 17.7959ZM89.9223 18.7275C89.9223 18.6396 89.9486 18.5664 90.0014 18.5078C90.0561 18.4473 90.1361 18.417 90.2416 18.417C90.3471 18.417 90.4271 18.4473 90.4818 18.5078C90.5365 18.5664 90.5639 18.6396 90.5639 18.7275C90.5639 18.8154 90.5365 18.8887 90.4818 18.9473C90.4271 19.0039 90.3471 19.0322 90.2416 19.0322C90.1361 19.0322 90.0561 19.0039 90.0014 18.9473C89.9486 18.8887 89.9223 18.8154 89.9223 18.7275Z" fill="black"/>
<path d="M17.7469 11.1298L16.3203 13.7385L18.0971 16.1442L20.5935 11.5884L17.7469 11.1298ZM9.97032 15.592L9.98028 13.5493C9.35965 13.2523 8.92457 12.5943 8.92836 11.818C8.93046 11.3883 9.07378 10.9895 9.30853 10.6891L7.92018 9.8155C7.20838 9.3673 6.96571 8.39373 7.3865 7.63446L8.37083 5.83017C8.57152 5.46557 8.89916 5.20023 9.28236 5.09197C9.66556 4.98371 10.0733 5.0413 10.4166 5.2522L16.1463 8.83802C16.8159 9.24079 17.0447 10.1615 16.6524 10.8832L15.5825 12.8379C15.1902 13.5521 14.3195 13.7966 13.65 13.3787L12.325 12.5582C12.1461 13.002 11.8121 13.3622 11.3941 13.5562L11.3841 15.5989C11.3801 16.428 10.7405 17.1033 9.96296 17.0995L6.42849 17.0823L6.43585 15.5747L9.97032 15.592Z" fill="black"/>
<defs>
<linearGradient id="paint0_linear_2:28" x1="0" y1="12" x2="24" y2="12" gradientUnits="userSpaceOnUse">
<stop stop-color="#F09819"/>
<stop offset="1" stop-color="#EDDE5D"/>
</linearGradient>
</defs>
</svg>
